<svg xmlns="http://www.w3.org/2000/svg" xmlns:xlink="http://www.w3.org/1999/xlink" style="margin:auto;background:0 0;display:block;shape-rendering:auto" width="130" height="130" preserveAspectRatio="xMidYMid" viewBox="0 0 100 100"><g transform="rotate(0 50 50)"><rect width="30" height="36" x="35" y="2" fill="#fe718d" rx="15" ry="18"><animate attributeName="opacity" begin="-0.8223684210526315s" dur="0.8771929824561403s" keyTimes="0;1" repeatCount="indefinite" values="1;0"/></rect></g><g transform="rotate(22.5 50 50)"><rect width="30" height="36" x="35" y="2" fill="#f47e60" rx="15" ry="18"><animate attributeName="opacity" begin="-0.7675438596491228s" dur="0.8771929824561403s" keyTimes="0;1" repeatCount="indefinite" values="1;0"/></rect></g><g transform="rotate(45 50 50)"><rect width="30" height="36" x="35" y="2" fill="#f8b26a" rx="15" ry="18"><animate attributeName="opacity" begin="-0.712719298245614s" dur="0.8771929824561403s" keyTimes="0;1" repeatCount="indefinite" values="1;0"/></rect></g><g transform="rotate(67.5 50 50)"><rect width="30" height="36" x="35" y="2" fill="#abbd81" rx="15" ry="18"><animate attributeName="opacity" begin="-0.6578947368421052s" dur="0.8771929824561403s" keyTimes="0;1" repeatCount="indefinite" values="1;0"/></rect></g><g transform="rotate(90 50 50)"><rect width="30" height="36" x="35" y="2" fill="#849b87" rx="15" ry="18"><animate attributeName="opacity" begin="-0.6030701754385964s" dur="0.8771929824561403s" keyTimes="0;1" repeatCount="indefinite" values="1;0"/></rect></g><g transform="rotate(112.5 50 50)"><rect width="30" height="36" x="35" y="2" fill="#6492ac" rx="15" ry="18"><animate attributeName="opacity" begin="-0.5482456140350876s" dur="0.8771929824561403s" keyTimes="0;1" repeatCount="indefinite" values="1;0"/></rect></g><g transform="rotate(135 50 50)"><rect width="30" height="36" x="35" y="2" fill="#637cb5" rx="15" ry="18"><animate attributeName="opacity" begin="-0.49342105263157887s" dur="0.8771929824561403s" keyTimes="0;1" repeatCount="indefinite" values="1;0"/></rect></g><g transform="rotate(157.5 50 50)"><rect width="30" height="36" x="35" y="2" fill="#6a63b6" rx="15" ry="18"><animate attributeName="opacity" begin="-0.43859649122807015s" dur="0.8771929824561403s" keyTimes="0;1" repeatCount="indefinite" values="1;0"/></rect></g><g transform="rotate(180 50 50)"><rect width="30" height="36" x="35" y="2" fill="#fe718d" rx="15" ry="18"><animate attributeName="opacity" begin="-0.3837719298245614s" dur="0.8771929824561403s" keyTimes="0;1" repeatCount="indefinite" values="1;0"/></rect></g><g transform="rotate(202.5 50 50)"><rect width="30" height="36" x="35" y="2" fill="#f47e60" rx="15" ry="18"><animate attributeName="opacity" begin="-0.3289473684210526s" dur="0.8771929824561403s" keyTimes="0;1" repeatCount="indefinite" values="1;0"/></rect></g><g transform="rotate(225 50 50)"><rect width="30" height="36" x="35" y="2" fill="#f8b26a" rx="15" ry="18"><animate attributeName="opacity" begin="-0.2741228070175438s" dur="0.8771929824561403s" keyTimes="0;1" repeatCount="indefinite" values="1;0"/></rect></g><g transform="rotate(247.5 50 50)"><rect width="30" height="36" x="35" y="2" fill="#abbd81" rx="15" ry="18"><animate attributeName="opacity" begin="-0.21929824561403508s" dur="0.8771929824561403s" keyTimes="0;1" repeatCount="indefinite" values="1;0"/></rect></g><g transform="rotate(270 50 50)"><rect width="30" height="36" x="35" y="2" fill="#849b87" rx="15" ry="18"><animate attributeName="opacity" begin="-0.1644736842105263s" dur="0.8771929824561403s" keyTimes="0;1" repeatCount="indefinite" values="1;0"/></rect></g><g transform="rotate(292.5 50 50)"><rect width="30" height="36" x="35" y="2" fill="#6492ac" rx="15" ry="18"><animate attributeName="opacity" begin="-0.10964912280701754s" dur="0.8771929824561403s" keyTimes="0;1" repeatCount="indefinite" values="1;0"/></rect></g><g transform="rotate(315 50 50)"><rect width="30" height="36" x="35" y="2" fill="#637cb5" rx="15" ry="18"><animate attributeName="opacity" begin="-0.05482456140350877s" dur="0.8771929824561403s" keyTimes="0;1" repeatCount="indefinite" values="1;0"/></rect></g><g transform="rotate(337.5 50 50)"><rect width="30" height="36" x="35" y="2" fill="#6a63b6" rx="15" ry="18"><animate attributeName="opacity" begin="0s" dur="0.8771929824561403s" keyTimes="0;1" repeatCount="indefinite" values="1;0"/></rect></g></svg>